<svg id="visual" viewBox="0 0 900 600" width="900" height="600" xmlns="http://www.w3.org/2000/svg" xmlns:xlink="http://www.w3.org/1999/xlink" version="1.1"><path d="M0 91L13.7 110C27.3 129 54.7 167 82 166C109.3 165 136.7 125 163.8 111C191 97 218 109 245.2 124C272.3 139 299.7 157 327 164C354.3 171 381.7 167 409 164C436.3 161 463.7 159 491 161C518.3 163 545.7 169 573 166C600.3 163 627.7 151 654.8 156C682 161 709 183 736.2 184C763.3 185 790.7 165 818 151C845.3 137 872.7 129 886.3 125L900 121L900 0L886.3 0C872.7 0 845.3 0 818 0C790.7 0 763.3 0 736.2 0C709 0 682 0 654.8 0C627.7 0 600.3 0 573 0C545.7 0 518.3 0 491 0C463.7 0 436.3 0 409 0C381.7 0 354.3 0 327 0C299.7 0 272.3 0 245.2 0C218 0 191 0 163.8 0C136.7 0 109.3 0 82 0C54.7 0 27.3 0 13.7 0L0 0Z" fill="#6198ff"></path><path d="M0 223L13.7 233C27.3 243 54.7 263 82 262C109.3 261 136.7 239 163.8 232C191 225 218 233 245.2 250C272.3 267 299.7 293 327 289C354.3 285 381.7 251 409 251C436.3 251 463.7 285 491 298C518.3 311 545.7 303 573 293C600.3 283 627.7 271 654.8 273C682 275 709 291 736.2 286C763.3 281 790.7 255 818 237C845.3 219 872.7 209 886.3 204L900 199L900 119L886.3 123C872.7 127 845.3 135 818 149C790.7 163 763.3 183 736.2 182C709 181 682 159 654.8 154C627.7 149 600.3 161 573 164C545.7 167 518.3 161 491 159C463.7 157 436.3 159 409 162C381.7 165 354.3 169 327 162C299.7 155 272.3 137 245.2 122C218 107 191 95 163.8 109C136.7 123 109.3 163 82 164C54.7 165 27.3 127 13.7 108L0 89Z" fill="#3c80ff"></path><path d="M0 457L13.7 448C27.3 439 54.7 421 82 423C109.3 425 136.7 447 163.8 449C191 451 218 433 245.2 431C272.3 429 299.7 443 327 446C354.3 449 381.7 441 409 440C436.3 439 463.7 445 491 451C518.3 457 545.7 463 573 454C600.3 445 627.7 421 654.8 412C682 403 709 409 736.2 415C763.3 421 790.7 427 818 431C845.3 435 872.7 437 886.3 438L900 439L900 197L886.3 202C872.7 207 845.3 217 818 235C790.7 253 763.3 279 736.2 284C709 289 682 273 654.8 271C627.7 269 600.3 281 573 291C545.7 301 518.3 309 491 296C463.7 283 436.3 249 409 249C381.7 249 354.3 283 327 287C299.7 291 272.3 265 245.2 248C218 231 191 223 163.8 230C136.7 237 109.3 259 82 260C54.7 261 27.3 241 13.7 231L0 221Z" fill="#0066ff"></path><path d="M0 505L13.7 504C27.3 503 54.7 501 82 505C109.3 509 136.7 519 163.8 519C191 519 218 509 245.2 510C272.3 511 299.7 523 327 527C354.3 531 381.7 527 409 524C436.3 521 463.7 519 491 525C518.3 531 545.7 545 573 542C600.3 539 627.7 519 654.8 509C682 499 709 499 736.2 498C763.3 497 790.7 495 818 492C845.3 489 872.7 485 886.3 483L900 481L900 437L886.3 436C872.7 435 845.3 433 818 429C790.7 425 763.3 419 736.2 413C709 407 682 401 654.8 410C627.7 419 600.3 443 573 452C545.7 461 518.3 455 491 449C463.7 443 436.3 437 409 438C381.7 439 354.3 447 327 444C299.7 441 272.3 427 245.2 429C218 431 191 449 163.8 447C136.7 445 109.3 423 82 421C54.7 419 27.3 437 13.7 446L0 455Z" fill="#0059dd"></path><path d="M0 601L13.7 601C27.3 601 54.7 601 82 601C109.3 601 136.7 601 163.8 601C191 601 218 601 245.2 601C272.3 601 299.7 601 327 601C354.3 601 381.7 601 409 601C436.3 601 463.7 601 491 601C518.3 601 545.7 601 573 601C600.3 601 627.7 601 654.8 601C682 601 709 601 736.2 601C763.3 601 790.7 601 818 601C845.3 601 872.7 601 886.3 601L900 601L900 479L886.3 481C872.7 483 845.3 487 818 490C790.7 493 763.3 495 736.2 496C709 497 682 497 654.8 507C627.7 517 600.3 537 573 540C545.7 543 518.3 529 491 523C463.7 517 436.3 519 409 522C381.7 525 354.3 529 327 525C299.7 521 272.3 509 245.2 508C218 507 191 517 163.8 517C136.7 517 109.3 507 82 503C54.7 499 27.3 501 13.7 502L0 503Z" fill="#004cbb"></path></svg>