<svg id="visual" viewBox="0 0 900 600" width="900" height="600" xmlns="http://www.w3.org/2000/svg" xmlns:xlink="http://www.w3.org/1999/xlink" version="1.1"><path d="M0 49L30 51C60 53 120 57 180 58C240 59 300 57 360 60C420 63 480 71 540 72C600 73 660 67 720 62C780 57 840 53 870 51L900 49L900 0L870 0C840 0 780 0 720 0C660 0 600 0 540 0C480 0 420 0 360 0C300 0 240 0 180 0C120 0 60 0 30 0L0 0Z" fill="#6198ff"></path><path d="M0 103L30 106C60 109 120 115 180 118C240 121 300 121 360 126C420 131 480 141 540 139C600 137 660 123 720 113C780 103 840 97 870 94L900 91L900 47L870 49C840 51 780 55 720 60C660 65 600 71 540 70C480 69 420 61 360 58C300 55 240 57 180 56C120 55 60 51 30 49L0 47Z" fill="#0066ff"></path><path d="M0 253L30 256C60 259 120 265 180 272C240 279 300 287 360 294C420 301 480 307 540 310C600 313 660 313 720 302C780 291 840 269 870 258L900 247L900 89L870 92C840 95 780 101 720 111C660 121 600 135 540 137C480 139 420 129 360 124C300 119 240 119 180 116C120 113 60 107 30 104L0 101Z" fill="#004cbb"></path><path d="M0 343L30 342C60 341 120 339 180 344C240 349 300 361 360 365C420 369 480 365 540 370C600 375 660 389 720 380C780 371 840 339 870 323L900 307L900 245L870 256C840 267 780 289 720 300C660 311 600 311 540 308C480 305 420 299 360 292C300 285 240 277 180 270C120 263 60 257 30 254L0 251Z" fill="#004cbb"></path><path d="M0 469L30 461C60 453 120 437 180 439C240 441 300 461 360 466C420 471 480 461 540 459C600 457 660 463 720 462C780 461 840 453 870 449L900 445L900 305L870 321C840 337 780 369 720 378C660 387 600 373 540 368C480 363 420 367 360 363C300 359 240 347 180 342C120 337 60 339 30 340L0 341Z" fill="#0066ff"></path><path d="M0 601L30 601C60 601 120 601 180 601C240 601 300 601 360 601C420 601 480 601 540 601C600 601 660 601 720 601C780 601 840 601 870 601L900 601L900 443L870 447C840 451 780 459 720 460C660 461 600 455 540 457C480 459 420 469 360 464C300 459 240 439 180 437C120 435 60 451 30 459L0 467Z" fill="#6198ff"></path></svg>