<svg id="visual" viewBox="0 0 900 600" width="900" height="600" xmlns="http://www.w3.org/2000/svg" xmlns:xlink="http://www.w3.org/1999/xlink" version="1.1"><path d="M0 133L30 130C60 127 120 121 180 127C240 133 300 151 360 155C420 159 480 149 540 145C600 141 660 143 720 144C780 145 840 145 870 145L900 145L900 0L870 0C840 0 780 0 720 0C660 0 600 0 540 0C480 0 420 0 360 0C300 0 240 0 180 0C120 0 60 0 30 0L0 0Z" fill="#475468"></path><path d="M0 187L30 184C60 181 120 175 180 179C240 183 300 197 360 202C420 207 480 203 540 200C600 197 660 195 720 195C780 195 840 197 870 198L900 199L900 143L870 143C840 143 780 143 720 142C660 141 600 139 540 143C480 147 420 157 360 153C300 149 240 131 180 125C120 119 60 125 30 128L0 131Z" fill="#2f4261"></path><path d="M0 343L30 352C60 361 120 379 180 378C240 377 300 357 360 349C420 341 480 345 540 344C600 343 660 337 720 341C780 345 840 359 870 366L900 373L900 197L870 196C840 195 780 193 720 193C660 193 600 195 540 198C480 201 420 205 360 200C300 195 240 181 180 177C120 173 60 179 30 182L0 185Z" fill="#15315a"></path><path d="M0 397L30 405C60 413 120 429 180 433C240 437 300 429 360 425C420 421 480 421 540 416C600 411 660 401 720 404C780 407 840 423 870 431L900 439L900 371L870 364C840 357 780 343 720 339C660 335 600 341 540 342C480 343 420 339 360 347C300 355 240 375 180 376C120 377 60 359 30 350L0 341Z" fill="#15315a"></path><path d="M0 517L30 518C60 519 120 521 180 520C240 519 300 515 360 519C420 523 480 535 540 534C600 533 660 519 720 518C780 517 840 529 870 535L900 541L900 437L870 429C840 421 780 405 720 402C660 399 600 409 540 414C480 419 420 419 360 423C300 427 240 435 180 431C120 427 60 411 30 403L0 395Z" fill="#2f4261"></path><path d="M0 601L30 601C60 601 120 601 180 601C240 601 300 601 360 601C420 601 480 601 540 601C600 601 660 601 720 601C780 601 840 601 870 601L900 601L900 539L870 533C840 527 780 515 720 516C660 517 600 531 540 532C480 533 420 521 360 517C300 513 240 517 180 518C120 519 60 517 30 516L0 515Z" fill="#475468"></path></svg>